# xmcd
#
# Track frame offsets: 
#        150
#        16302
#        28891
#        39354
#        50275
#        63833
#        79301
#        91912
#        104323
#        120021
#        135979
#        148485
#        161429
#        172829
#
# Disc length: 2513 seconds
#
# Revision: 0
# Processed by: cddbd v1.5.2PL0 Copyright (c) Steve Scherf et al.
# Submitted via: ExactAudioCopy v1.1
#
DISCID=a709cf0e
DTITLE=Various Artist - Jägerlieder
DYEAR=1900
DGENRE=
TTITLE0=Stubaitaler Holzknecht - An einem Sonntag Morgen
TTITLE1=Alpenoberkrainer - Der Jägermaier
TTITLE2=Ensemble Osttirol - Gamsalschiaß'n
TTITLE3=Heimatland Quintett - Da Jaga von der Feldereralm
TTITLE4=Tauern Echo - I bin a Wildschütz
TTITLE5=Orig. Südtiroler Spitzbuam - Wo auf Bergeshöh'n
TTITLE6=Orig. Trio Alpin - I bin a Jagersbua
TTITLE7=Kärnter Spatzen - Der Gemserli-Jäger
TTITLE8=Die Hegl - Hörst Du die Berge, sie rufen
TTITLE9=Die Bergdiamanten - Die fesche Jagerin
TTITLE10=Kreuzjoch Duo - Steig i's dem Gamsgebirg zua
TTITLE11=Zillertaler Power - Buam aus den Bergen
TTITLE12=Zillertaler Jagerbuam - Der Jagerbua
TTITLE13=Orig. Südtiroler Spitzbuam - Schau das Alpenglüh'n
EXTD=
EXTT0=
EXTT1=
EXTT2=
EXTT3=
EXTT4=
EXTT5=
EXTT6=
EXTT7=
EXTT8=
EXTT9=
EXTT10=
EXTT11=
EXTT12=
EXTT13=
PLAYORDER=
